<svg id="Layer_1" data-name="Layer 1" xmlns="http://www.w3.org/2000/svg" viewBox="0 0 556.18 183.61"><defs><style>.cls-1{fill:#41becd;}.cls-2{fill:#159da0;}.cls-3{fill:#9775ea;}.cls-4{fill:#7348b4;}.cls-5{fill:#efaca8;}.cls-6{fill:#ed9696;}.cls-7{fill:#d1cbcb;}</style></defs><path class="cls-1" d="M15.54,94.85s7,38.51,34.91,59.83c.77-16.31,8.76-60.3,8.76-60.3S37.86,108.49,15.54,94.85Z"/><path class="cls-2" d="M42.08,101.86s6.24-.48,10.32-2.93a76.32,76.32,0,0,0,6.81-4.55s-4.35,14.05-5.27,23.87c-.28-1.5-.35-11.13,1.68-15.79-3.74,5.08-5.8,12.27-5.8,12.27a29.91,29.91,0,0,1,5.75-14.81c-6.8,7.42-10,8.62-10,8.62s5.63-6.07,7.37-8.51A21.86,21.86,0,0,1,42.08,101.86Z"/><path class="cls-2" d="M32.89,101.84s-6.25-.28-10.4-2.59a77,77,0,0,1-7-4.33s3.83,13.62,9.12,22.88c.23-1.51-3.08-10.33-5.26-14.92,3.9,5,6.19,12.07,6.19,12.07a30,30,0,0,0-6.23-14.61c7,7.19,10.29,8.29,10.29,8.29s-5.83-5.89-7.64-8.27A21.71,21.71,0,0,0,32.89,101.84Z"/><path class="cls-3" d="M60.26,94s8.09,35,38.42,52.69c4.84-17.16,4.85-58.62,4.85-58.62S84.12,104.72,60.26,94Z"/><path class="cls-4" d="M87.47,97.61s6.13-1.25,9.88-4.19a57.73,57.73,0,0,0,6.42-5.88s-2.8,15-2.48,24.86c-.47-1.46-1.74-11-.31-15.88-3.08,5.51-4.22,12.9-4.22,12.9A29.81,29.81,0,0,1,100.62,94c-5.83,8.21-8.86,9.81-8.86,9.81s4.83-6.73,6.24-9.37A21.67,21.67,0,0,1,87.47,97.61Z"/><path class="cls-4" d="M78.35,98.74s-6.23.51-10.64-1.26a75.61,75.61,0,0,1-7.45-3.43s5.51,13,11.91,21.56c0-1.52-4.35-9.86-7.09-14.14,4.5,4.43,7.65,11.2,7.65,11.2a29.89,29.89,0,0,0-8-13.72c7.88,6.26,11.24,6.94,11.24,6.94s-6.51-5.11-8.61-7.25A21.74,21.74,0,0,0,78.35,98.74Z"/><path class="cls-5" d="M105.48,87.7s15.61,35.3,48.64,47.17C154.51,118.66,147,74,147,74S130.89,93.93,105.48,87.7Z"/><path class="cls-6" d="M132.9,86.33s5.8-2.35,8.95-5.91A79.1,79.1,0,0,0,147,74s.11,14.71,2.21,24.35c-.72-1.35-3.71-10.5-3.19-15.55-2,6-1.8,13.44-1.8,13.44a29.85,29.85,0,0,1,1-15.86c-4.24,9.14-6.93,11.26-6.93,11.26s3.53-7.5,4.44-10.35A21.72,21.72,0,0,1,132.9,86.33Z"/><path class="cls-6" d="M124.14,89.09s-6,1.64-10.7.7a56.56,56.56,0,0,1-8.22-2.31s8.06,12.11,15.9,19.33c-.24-1.51-6.07-8.91-9.54-12.62,5.23,3.54,9.56,9.62,9.56,9.62a29.82,29.82,0,0,0-10.37-12c8.9,4.72,12.32,4.79,12.32,4.79s-7.33-3.85-9.78-5.57A21.67,21.67,0,0,0,124.14,89.09Z"/><path class="cls-1" d="M151.52,73.2s20.39,33.42,54.07,43.3c-5.14-15.5-13.48-59.42-13.48-59.42S177.26,77.91,151.52,73.2Z"/><path class="cls-2" d="M178.81,70.21s5.65-2.69,8.58-6.43a77.11,77.11,0,0,0,4.72-6.7s1,14.67,3.66,24.17C195,80,191.44,71,191.66,65.91c-1.66,6.09-1,13.53-1,13.53a29.9,29.9,0,0,1,.05-15.89c-3.69,9.37-6.25,11.65-6.25,11.65s3.07-7.69,3.82-10.6A21.81,21.81,0,0,1,178.81,70.21Z"/><path class="cls-2" d="M170.23,73.49s-5.93,2-10.64,1.32a76.77,76.77,0,0,1-8.05-1.54S160,84.61,168.27,91.35c-.33-1.49-6.59-8.53-10.27-12,5.42,3.22,10.11,9,10.11,9A29.88,29.88,0,0,0,157.05,77c9.16,4.19,12.58,4,12.58,4s-7.55-3.4-10.1-5A21.68,21.68,0,0,0,170.23,73.49Z"/><path class="cls-3" d="M193,56.33s20.13,29.78,54.78,35.38c-1.64-17.75-16.48-57-16.48-57S219.07,57.79,193,56.33Z"/><path class="cls-4" d="M219.66,50s5.26-3.38,7.7-7.46a59.59,59.59,0,0,0,3.89-7.75s2.77,15,6.61,24c-1-1.2-5.58-9.64-6-14.71-.9,6.25.69,13.55.69,13.55a30,30,0,0,1-1.94-15.77c-2.48,9.75-4.74,12.34-4.74,12.34s2.09-8,2.46-11A21.74,21.74,0,0,1,219.66,50Z"/><path class="cls-4" d="M211.55,54.28s-5.64,2.71-10.39,2.64a76.39,76.39,0,0,1-8.18-.53s9.82,10.2,18.85,15.85c-.51-1.43-7.59-7.64-11.69-10.65,5.79,2.52,11.17,7.7,11.17,7.7a30,30,0,0,0-12.41-9.93c9.61,3,13,2.44,13,2.44s-7.92-2.43-10.64-3.67A21.8,21.8,0,0,0,211.55,54.28Z"/><path class="cls-5" d="M232.42,34s27.72,27.57,62.81,26.78c-5.46-15.26-28.54-54.22-28.54-54.22S258.37,30.69,232.42,34Z"/><path class="cls-6" d="M258,23.1s4.57-4.27,6.23-8.73a76.63,76.63,0,0,0,2.46-7.81s5.39,13.69,10.81,21.93c-1.15-1-7.23-8.47-8.56-13.37.26,6.3,3.15,13.19,3.15,13.19a29.78,29.78,0,0,1-4.77-15.15c-.68,10-2.43,13-2.43,13s.6-8.26.43-11.25A21.73,21.73,0,0,1,258,23.1Z"/><path class="cls-6" d="M250.81,28.83s-5.05,3.69-9.74,4.49a48.64,48.64,0,0,1-8.65.68s12,8.53,21.93,12.45c-.76-1.32-8.85-6.14-13.42-8.36,6.14,1.43,12.37,5.55,12.37,5.55a29.92,29.92,0,0,0-14-7.51c10,1.21,13.22,0,13.22,0s-8.23-1-11.14-1.68A21.72,21.72,0,0,0,250.81,28.83Z"/><path class="cls-7" d="M6.8,95.17l-1.08-.11-1-.09.07-1,1,.1c31.05,3.1,141.25,6.31,254.86-80.74l.61.79C209.86,53.53,153,79.17,92.35,90.34,62.51,95.83,32.18,97.54,6.8,95.17Z"/><path class="cls-1" d="M291.1,28.69s-15,36.18-3.05,69.2c9.49-13.29,40-45.94,40-45.94S302.48,52.25,291.1,28.69Z"/><path class="cls-2" d="M309.63,49s5.5,3,10.25,3.13a78.54,78.54,0,0,0,8.19-.14s-11.26,9.45-17.35,17.21c.57-1.41,5.72-9.54,9.95-12.36C314.78,59,309.16,64,309.16,64A30,30,0,0,1,322,54.63c-9.74,2.56-13.09,1.83-13.09,1.83s8-2.06,10.8-3.17A21.67,21.67,0,0,1,309.63,49Z"/><path class="cls-2" d="M301.91,44s-5.11-3.61-7.35-7.8a77.06,77.06,0,0,1-3.5-7.41s-4.16,13.53-4.73,24.17c1-1.14,3-10.35,3.66-15.39.6,6.28-1.33,13.5-1.33,13.5a29.86,29.86,0,0,0,2.67-15.66c2,9.86,4.16,12.55,4.16,12.55s-1.71-8.11-1.94-11.1A21.67,21.67,0,0,0,301.91,44Z"/><path class="cls-3" d="M329.17,52.18S317,86,332.94,117.28c13.36-11.8,35.82-46.65,35.82-46.65S343.41,74.13,329.17,52.18Z"/><path class="cls-4" d="M350.08,70s5.84,2.27,10.57,1.83A63.11,63.11,0,0,0,369,70.47s-10.23,11-15.3,19.41c.4-1.47,4.49-10.19,8.33-13.51-5.56,3-10.52,8.55-10.52,8.55a29.91,29.91,0,0,1,11.59-10.87c-9.35,3.75-12.76,3.45-12.76,3.45s7.7-3,10.32-4.49A21.79,21.79,0,0,1,350.08,70Z"/><path class="cls-4" d="M341.8,66s-5.51-3-8.26-6.83a72.8,72.8,0,0,1-4.4-6.91s-2.44,13.94-1.67,24.57c.86-1.26,1.68-10.64,1.7-15.72,1.38,6.16.37,13.56.37,13.56a30,30,0,0,0,.7-15.87c3.24,9.53,5.69,11.92,5.69,11.92s-2.71-7.82-3.31-10.76A21.69,21.69,0,0,0,341.8,66Z"/><path class="cls-5" d="M370.59,71.39s-6,38.13,15.35,66C395,124,412.38,83.3,412.38,83.3S388.58,90.39,370.59,71.39Z"/><path class="cls-6" d="M394.38,85.08s6.15,1.17,10.73-.12a59.65,59.65,0,0,1,7.27-1.66S405,94.77,401.54,104c.13-1.52,2.57-10.84,5.75-14.8-4.94,3.92-8.8,10.32-8.8,10.32a29.88,29.88,0,0,1,9.42-12.79C399.4,92.12,396,92.45,396,92.45s7-4.4,9.34-6.3A21.73,21.73,0,0,1,394.38,85.08Z"/><path class="cls-6" d="M385.52,82.66s-6-1.9-9.37-5.21a55.16,55.16,0,0,1-5.61-6.33s.16,14.48,2.85,24.8c.61-1.4-.28-10.77-1.18-15.77C374.68,86,375,93.41,375,93.41a29.77,29.77,0,0,0-2.2-15.73c4.92,8.78,7.77,10.69,7.77,10.69s-4.09-7.2-5.22-10A21.73,21.73,0,0,0,385.52,82.66Z"/><path class="cls-1" d="M417.14,84.49s-.95,38.78,22,65.32C443.23,134,460,92.56,460,92.56S436.23,102.39,417.14,84.49Z"/><path class="cls-2" d="M441.71,96.39s6.21.8,10.7-.76A76.38,76.38,0,0,0,460,92.56s-7.12,12.87-10,22.3c0-1.53,1.92-11,4.86-15.12-4.7,4.22-8.17,10.83-8.17,10.83a29.89,29.89,0,0,1,8.64-13.33c-8.17,5.88-11.56,6.41-11.56,6.41s6.76-4.8,8.95-6.84A21.73,21.73,0,0,1,441.71,96.39Z"/><path class="cls-2" d="M432.72,94.5s-6.07-1.54-9.66-4.64-5.95-5.48-5.95-5.48,1,13.94,4.29,24.08c.53-1.43-.92-10.74-2.12-15.68,2.81,5.65,3.61,13.08,3.61,13.08a30,30,0,0,0-3.13-15.58c5.43,8.48,8.39,10.22,8.39,10.22s-4.51-7-5.8-9.66A21.71,21.71,0,0,0,432.72,94.5Z"/><path class="cls-3" d="M461.11,92.38s.8,35.94,26.9,59.41C496.24,136,505.07,94.7,505.07,94.7S482.28,107.76,461.11,92.38Z"/><path class="cls-4" d="M487,101.48s6.25,0,10.51-2.09a48.3,48.3,0,0,0,7.54-4.69s-5.84,14.35-7.54,24.06c-.16-1.51.54-11.12,2.93-15.6-4.13,4.77-6.75,11.76-6.75,11.76a29.8,29.8,0,0,1,6.91-14.3c-7.37,6.85-10.67,7.8-10.67,7.8s6.1-5.61,8-7.9A21.81,21.81,0,0,1,487,101.48Z"/><path class="cls-4" d="M477.86,100.73s-6.21-.78-10.17-3.41a76.22,76.22,0,0,1-6.59-4.87s2.74,13.89,7.27,23.53c.35-1.48-2.25-10.53-4.06-15.28,3.5,5.25,5.21,12.52,5.21,12.52a29.79,29.79,0,0,0-5-15.06c6.45,7.73,9.6,9.08,9.6,9.08s-5.34-6.33-7-8.85A21.74,21.74,0,0,0,477.86,100.73Z"/><path class="cls-5" d="M506.54,94.73s8.22,38.45,38.15,56.78c3.67-15.79,5.37-61,5.37-61S530.15,106,506.54,94.73Z"/><path class="cls-6" d="M533.79,99.67s6.16-1.11,10-4a75.39,75.39,0,0,0,6.31-5.24s-2.89,14.43-2.79,24.29c-.43-1.46-1.5-11,0-15.87-3.19,5.44-4.5,12.79-4.5,12.79A29.82,29.82,0,0,1,547,96.36c-6,8.08-9.08,9.61-9.08,9.61s5-6.62,6.46-9.23A21.66,21.66,0,0,1,533.79,99.67Z"/><path class="cls-6" d="M524.65,100.6S518.4,101,514,99.1a37.48,37.48,0,0,1-7.49-4.3s5.34,13.86,11.54,22.53c.08-1.53-4.12-10-6.76-14.3,4.39,4.53,7.4,11.37,7.4,11.37a29.9,29.9,0,0,0-7.7-13.9c7.74,6.43,11.09,7.19,11.09,7.19s-6.41-5.25-8.45-7.44A21.69,21.69,0,0,0,524.65,100.6Z"/><path class="cls-7" d="M468.45,93.59A382.91,382.91,0,0,1,358.12,66.5c-28.46-11.71-55.23-27-75.39-42.94-.37-.3-.63-.51-.77-.61l.6-.8.8.62c24.45,19.4,115.32,81.8,258,70.14l.08,1A417,417,0,0,1,468.45,93.59Z"/></svg>