<svg id="Layer_1" data-name="Layer 1" xmlns="http://www.w3.org/2000/svg" viewBox="0 0 213 88.37"><defs><style>.cls-1{fill:#636163;}</style></defs><path class="cls-1" d="M209.69,68.06s-.41-11.31-6.78-7.17-11.69,10.74-18.5,18.75-16.23,9.91-16-4.22c1.85,5.73,5.24,8.6,10.85,3s16.1-21.91,25.3-23.86S211,65.62,209.69,68.06Z"/><path class="cls-1" d="M180,70.69a27.92,27.92,0,0,1-2.62-17.4c1.44-8.14,6.46-11.08,8.63-8.41s5.37,9,2.72,13.94-10.11,10.29-24,12.89S140.92,73.16,138.32,65c-4.14,6.25-10,8.27-14.92,7s-6-6.06-6.06-17.13-2.89-39-4-43.6c1.54-5.39,3.47-7.22,3.47-7.22s2.6,20,2.89,32.72.83,25.11,5.35,28.1,11.39-1.72,14.57-6.63c.19,4.91,1.44,8.17,11,8.95s24.7-2,32-7.12,3.56-10.49,1.92-10.69-5,2.81-5.1,7.7S180,70.69,180,70.69Z"/><path class="cls-1" d="M140.7,76.36s3.25-11.77,8.09-19.64,13.3-15.64,21.36-9.89,3,16.45-5.77,20.36-14.58,0-14.58,0a29.08,29.08,0,0,0,14.8-3.54c7.5-4.11,5-11.55-.58-12.85s-11.68,5.48-15.6,12.87C145.06,70,140.7,76.36,140.7,76.36Z"/><path class="cls-1" d="M112.14,47.75s-7.25-3.62-8.86-5.64c-.33,4.28-.9,6,.19,7.2A20.94,20.94,0,0,1,109.59,62c.62,7.15-10.53,15.44-23.71,18.29S64.1,71.05,68.41,59.62c-3.94,5.31-5,18.31,4.51,25.21s24.53-.1,33.54-8.75,7.69-15.45,6.26-19.65a28,28,0,0,0-4.65-7.92Z"/><path class="cls-1" d="M98.33,21.57s11-10.06,11.55-17.52S101.94.49,87.64,7.27,59.63,22,58.91,25.18s-1.29,8.37,5.93,12.7S84.18,50.3,85.48,55.06c-.15,2.17-17.91,3.18-27.72,12.85S45.34,82.49,39,79.46,36.53,64,40,61.7C34.66,65,32.2,71.86,34.66,80.35s11.4,6.93,17.47,1.43,7.36-14.45,21.22-17.91S89.52,60,89.88,54.48s-7.72-10.1-15.09-14.87S61.94,29.41,62.8,27,80.52,13.75,93.37,9.27s11.4-2.87,11.4-.85S98.33,21.57,98.33,21.57Z"/><polygon class="cls-1" points="93.98 38.92 90.99 44.31 95.9 47.39 98.89 41.91 93.98 38.92"/><polygon class="cls-1" points="58.66 48.86 55.68 54.25 60.59 57.33 63.57 51.85 58.66 48.86"/><polygon class="cls-1" points="67.82 46.26 64.84 51.65 69.75 54.73 72.73 49.24 67.82 46.26"/><polygon class="cls-1" points="146.62 38.92 143.64 44.31 148.54 47.39 151.53 41.91 146.62 38.92"/><path class="cls-1" d="M42.91,37.59C36.27,40.72,33.56,47.54,34,52c-1.62,1-3.34,2.16-5.16,3.53-14.21,10.68-15,19.09-19.71,16.11C6.23,69.78,7,55.06,9.85,51.45c-3.47,2.31-7.65,14.3-5,24.26s13.13-4.62,19.49-10.83a80.31,80.31,0,0,1,10.25-8.8s4.18,10.38,9.81,11.11,9.82-6.64,8.38-13.86c-1.11-5.54-6.24-7.59-15-3.41.7-7.13,5.72-10.68,11.08-9.58,3,.61,6,3.29,8.19,5.65l6.59-2.62C56.86,37.07,49.22,34.62,42.91,37.59Zm4.13,17c3,3.1-2.18,7.6-4.66,5.67a13.79,13.79,0,0,1-4.28-5.88C38.25,54.38,44.12,51.59,47,54.64Z"/><polygon class="cls-1" points="213 16.4 194.21 30.48 194.21 32.61 213 18.53 213 16.4"/><polygon class="cls-1" points="191.37 16.4 172.58 30.48 172.58 32.61 191.37 18.53 191.37 16.4"/><polygon class="cls-1" points="146.93 16.4 128.14 30.48 128.14 32.61 146.93 18.53 146.93 16.4"/><polygon class="cls-1" points="60.81 15.11 42.02 29.19 42.02 31.32 60.81 17.25 60.81 15.11"/><polygon class="cls-1" points="79.58 70.1 60.8 84.18 60.8 86.31 79.58 72.23 79.58 70.1"/><path class="cls-1" d="M76.53,38.9c2.58-2.38,5.27-4.63,8-6.83.68-.55,1.36-1.1,2-1.64a13.29,13.29,0,0,0,1.85-1.65A8.69,8.69,0,0,0,90.8,24.7a6,6,0,0,0,.14-1.12,4.49,4.49,0,0,0-.12-1.07,1.65,1.65,0,0,0-1.09-1.3,3.18,3.18,0,0,0-2,.15,5.93,5.93,0,0,0-2,1.21,5.83,5.83,0,0,0-1.35,1.91,4,4,0,0,0-.27,2.24,1.93,1.93,0,0,0,1.65,1.34,7.9,7.9,0,0,0,2.57,0,6.84,6.84,0,0,1-2.63.45,3.18,3.18,0,0,1-1.38-.38,2.22,2.22,0,0,1-1-1.15,5.54,5.54,0,0,1,1.46-5.37A6.66,6.66,0,0,1,87.13,20a4.64,4.64,0,0,1,3.08-.3l.41.13c.13.06.25.15.38.22l.37.25.3.33a2.54,2.54,0,0,1,.48.71c.06.13.13.26.18.38l.1.39a6.06,6.06,0,0,1,0,3,10.05,10.05,0,0,1-2.87,4.84,16.62,16.62,0,0,1-2.14,1.74c-.71.51-1.43,1-2.14,1.5C82.44,35.14,79.53,37.09,76.53,38.9Z"/><path class="cls-1" d="M24.13,45.23A8.67,8.67,0,0,1,19,39.84a8.19,8.19,0,0,1-.22-4,5.23,5.23,0,0,1,2.41-3.47,5.28,5.28,0,0,1,4.22-.31,3.92,3.92,0,0,1,2.69,3.22,9.74,9.74,0,0,1-.21,3.86,15.65,15.65,0,0,1-1.3,3.48A28.1,28.1,0,0,0,27.09,39a10.4,10.4,0,0,0-.26-3.42,3.63,3.63,0,0,0-.68-1.3,3,3,0,0,0-1.23-.7,4.06,4.06,0,0,0-1.47-.16,3.83,3.83,0,0,0-1.39.43c-1.73.92-2.16,3.46-1.75,5.61A10.07,10.07,0,0,0,24.13,45.23Z"/><path class="cls-1" d="M122.66,11.2a6.56,6.56,0,0,1,3.15-2.66,3,3,0,0,1,2.26.15,4.69,4.69,0,0,1,1.66,1.52,16,16,0,0,1,1.8,3.81,32.64,32.64,0,0,1,1,4L131,17.84a35,35,0,0,1,3.54-6,25.74,25.74,0,0,1,4.77-5.07,15.62,15.62,0,0,1,3-1.9,11.11,11.11,0,0,1,3.37-1.1,10.33,10.33,0,0,1,3.51.05,11.13,11.13,0,0,1,3.21,1.23,13.55,13.55,0,0,0-3.28-.66,10.67,10.67,0,0,0-3.24.34A14.38,14.38,0,0,0,140.31,8a30.09,30.09,0,0,0-4.37,4.91,43,43,0,0,0-3.44,5.65l-1.15,2.33L131,18.3a34.39,34.39,0,0,0-.81-3.86,15,15,0,0,0-1.38-3.62,3.6,3.6,0,0,0-1.16-1.33A2.25,2.25,0,0,0,126,9.18,7,7,0,0,0,122.66,11.2Z"/><path class="cls-1" d="M0,11.2A6.51,6.51,0,0,1,3.15,8.54a3,3,0,0,1,2.26.15,4.57,4.57,0,0,1,1.65,1.52A15.62,15.62,0,0,1,8.87,14a32.6,32.6,0,0,1,1,4l-1.52-.21a35,35,0,0,1,3.54-6A25.74,25.74,0,0,1,16.69,6.8a15.62,15.62,0,0,1,3-1.9A11.11,11.11,0,0,1,23,3.8a10.34,10.34,0,0,1,3.51.05,11.24,11.24,0,0,1,3.21,1.23,13.55,13.55,0,0,0-3.28-.66,10.64,10.64,0,0,0-3.24.34A14.49,14.49,0,0,0,17.64,8a30.51,30.51,0,0,0-4.36,4.91,43,43,0,0,0-3.44,5.65L8.68,20.84,8.31,18.3a32.26,32.26,0,0,0-.8-3.86,15.87,15.87,0,0,0-1.38-3.62A3.6,3.6,0,0,0,5,9.49a2.25,2.25,0,0,0-1.66-.31A7,7,0,0,0,0,11.2Z"/><path class="cls-1" d="M170.3,11.2a6.56,6.56,0,0,1,3.15-2.66,3,3,0,0,1,2.26.15,4.69,4.69,0,0,1,1.66,1.52,16,16,0,0,1,1.8,3.81,32.64,32.64,0,0,1,1,4l-1.53-.21a35,35,0,0,1,3.54-6A25.74,25.74,0,0,1,187,6.8a15.62,15.62,0,0,1,3-1.9,11.11,11.11,0,0,1,3.37-1.1,10.33,10.33,0,0,1,3.51.05,11.13,11.13,0,0,1,3.21,1.23,13.55,13.55,0,0,0-3.28-.66,10.67,10.67,0,0,0-3.24.34A14.38,14.38,0,0,0,188,8a30.09,30.09,0,0,0-4.37,4.91,43,43,0,0,0-3.44,5.65L179,20.84l-.37-2.54a34.39,34.39,0,0,0-.81-3.86,15,15,0,0,0-1.38-3.62,3.6,3.6,0,0,0-1.16-1.33,2.25,2.25,0,0,0-1.66-.31A7,7,0,0,0,170.3,11.2Z"/><path class="cls-1" d="M37.6,12.25a5.59,5.59,0,0,1,.73-4.93A4.73,4.73,0,0,1,40.57,5.8a5.08,5.08,0,0,1,2.77-.15,3.19,3.19,0,0,1,1.39.69,2.07,2.07,0,0,1,.71,1.71,2.59,2.59,0,0,1-.79,1.54,5.12,5.12,0,0,1-1.17.85,21.05,21.05,0,0,1-2.34,1c-.77.3-1.52.58-2.17.91a3.82,3.82,0,0,0-1.53,1.29,5.84,5.84,0,0,0-.76,2,26.71,26.71,0,0,0-.4,4.73c-.1,3.27-.27,6.53-.59,9.81-.37-3.27-.57-6.54-.72-9.8a23.25,23.25,0,0,1,.14-5,6.84,6.84,0,0,1,.94-2.58,5.57,5.57,0,0,1,2.13-1.89,19.53,19.53,0,0,1,2.36-1A20,20,0,0,0,42.71,9c.63-.3,1.18-.8,1.21-1.11a.52.52,0,0,0-.19-.47A2.06,2.06,0,0,0,43,7,3.82,3.82,0,0,0,40.9,7a3.9,3.9,0,0,0-1.9,1A5.75,5.75,0,0,0,37.6,12.25Z"/><path class="cls-1" d="M161.74,10.34c-.3.85-.61,1.69-.87,2.55s-.53,1.71-.74,2.57a16.25,16.25,0,0,0-.61,5.19,3.63,3.63,0,0,0,.89,2.22,2.15,2.15,0,0,0,2,.91,2.8,2.8,0,0,0,1.42-1.89,5.93,5.93,0,0,0,.25-2.62,5.51,5.51,0,0,1,.12,2.71,3.22,3.22,0,0,1-1.58,2.36,2,2,0,0,1-1.56-.09c-.23-.11-.42-.26-.64-.38l-.54-.48a4.34,4.34,0,0,1-1.14-2.66,14,14,0,0,1,.81-5.43A25.84,25.84,0,0,1,161.74,10.34Z"/><path class="cls-1" d="M116.07,84.41c.9,0,1.79.09,2.69.08s1.79,0,2.68,0a16.54,16.54,0,0,0,5.14-.94,3.68,3.68,0,0,0,1.86-1.5,2.15,2.15,0,0,0,.27-2.19,2.79,2.79,0,0,0-2.22-.81,5.94,5.94,0,0,0-2.57.54,5.45,5.45,0,0,1,2.56-.92,3.22,3.22,0,0,1,2.71.83,2,2,0,0,1,.37,1.51,6.47,6.47,0,0,1-.18.73l-.29.65a4.28,4.28,0,0,1-2.21,1.87,14,14,0,0,1-5.43.82A25.52,25.52,0,0,1,116.07,84.41Z"/><path class="cls-1" d="M205.44,33.58c-.3.85-.61,1.69-.86,2.55s-.54,1.71-.75,2.57a16.54,16.54,0,0,0-.61,5.19,3.72,3.72,0,0,0,.89,2.23,2.17,2.17,0,0,0,2,.9,2.79,2.79,0,0,0,1.43-1.89,5.93,5.93,0,0,0,.24-2.62,5.44,5.44,0,0,1,.12,2.72,3.19,3.19,0,0,1-1.58,2.35,2,2,0,0,1-1.56-.09c-.23-.11-.42-.25-.64-.38l-.54-.48A4.34,4.34,0,0,1,202.45,44a14.14,14.14,0,0,1,.81-5.43A26.48,26.48,0,0,1,205.44,33.58Z"/><path class="cls-1" d="M133.45,40.49c-.3.85-.61,1.69-.87,2.55s-.53,1.71-.74,2.57a16.25,16.25,0,0,0-.61,5.19,3.63,3.63,0,0,0,.89,2.22,2.14,2.14,0,0,0,2,.9A2.78,2.78,0,0,0,135.55,52a5.93,5.93,0,0,0,.25-2.62,5.51,5.51,0,0,1,.12,2.71,3.19,3.19,0,0,1-1.58,2.35,2,2,0,0,1-1.56-.08c-.23-.11-.42-.26-.64-.39l-.54-.47a4.34,4.34,0,0,1-1.14-2.66,14,14,0,0,1,.81-5.43A25.84,25.84,0,0,1,133.45,40.49Z"/><path class="cls-1" d="M6.63,30.73c-.3.85-.61,1.69-.87,2.55S5.23,35,5,35.85A16.25,16.25,0,0,0,4.41,41a3.66,3.66,0,0,0,.89,2.23,2.16,2.16,0,0,0,2,.9,2.82,2.82,0,0,0,1.43-1.89A6.08,6.08,0,0,0,9,39.66a5.52,5.52,0,0,1,.12,2.71,3.19,3.19,0,0,1-1.58,2.36A2,2,0,0,1,6,44.64c-.23-.11-.42-.25-.64-.38l-.54-.48a4.34,4.34,0,0,1-1.14-2.66,14,14,0,0,1,.81-5.43A25.84,25.84,0,0,1,6.63,30.73Z"/></svg>