<svg id="Layer_1" data-name="Layer 1" xmlns="http://www.w3.org/2000/svg" viewBox="0 0 126.44 425.78"><defs><style>.cls-1{fill:#f7c0bf;}.cls-2{fill:#e5aaa3;}.cls-3{fill:#e07777;}.cls-4{fill:#e59791;}.cls-5{fill:#efaca8;}.cls-6{fill:#ffe0de;}.cls-7{fill:#e88b8b;}.cls-8{fill:#ed9696;}.cls-9{fill:#ffcbc7;}.cls-10{fill:#fee;}</style></defs><path class="cls-1" d="M61.47,254.81a9.47,9.47,0,1,1,9.47-9.47A9.48,9.48,0,0,1,61.47,254.81Zm0-17.14a7.68,7.68,0,1,0,7.68,7.67A7.68,7.68,0,0,0,61.47,237.67Z"/><rect class="cls-1" x="60.58" width="1.79" height="236.77"/><path class="cls-2" d="M56.19,387.23l-3.58,4.54s4.92,16.23,7,26.36c3.5-11.47,7.12-26.51,7.12-26.51s-3.69-3-3.84-4.39S56.19,387.23,56.19,387.23Z"/><path class="cls-3" d="M46.79,377.81s-2.73,4.13,2.34,8.56,18.39,3.17,21.65-.81c2.72-3.32,2.91-7.13,1.58-9.09S46.79,377.81,46.79,377.81Z"/><path class="cls-4" d="M35.55,367s-5.21,4.64,4.45,9.61,35.06,3.55,41.28-.92c5.18-3.72,5.55-8,3-10.2S35.55,367,35.55,367Z"/><path class="cls-2" d="M31,358.86s-6.51,4.87,5.55,10.09,43.78,3.73,51.54-1c6.47-3.91,6.93-8.39,3.75-10.71S31,358.86,31,358.86Z"/><polygon class="cls-3" points="26.41 351.43 30.28 349.49 94.26 348.59 96.09 349.49 80.98 356.48 34.08 358.5 26.41 351.43"/><path class="cls-5" d="M25.48,294.7S19,281.42,37.17,276.33s24.32-18.37,24-21.69c3.59,12.39,25.67,20.8,35.09,24.57s4.22,15.49,4.22,15.49Z"/><path class="cls-6" d="M49.08,294.63s-6.39-4.14-5.74-10.55,18.58-17.93,17.84-29.44c3.16,13.43,9.87,17.56,16.15,23.09s5,12,0,16.45C66.39,295.51,49.08,294.63,49.08,294.63Z"/><path class="cls-1" d="M49.08,294.63a13.82,13.82,0,0,1-2.65-10.14c.65-6.42,15.49-18.34,14.75-29.85,3.16,13.43,6.52,18,12.8,23.52s8.32,11.6,3.35,16C66.39,295.51,49.08,294.63,49.08,294.63Z"/><polygon class="cls-2" points="83.98 361.24 33.24 360.47 29.55 295.99 88.07 294.08 83.98 361.24"/><polygon class="cls-4" points="83.98 361.24 92.95 357.23 101.92 298.12 88.07 294.08 83.98 361.24"/><polygon class="cls-4" points="33.24 360.47 29.55 295.99 24.04 300.2 29.55 357.12 33.24 360.47"/><polygon class="cls-7" points="103.59 303.63 89.3 299.94 29.55 299.94 22.74 304.85 22.29 295.99 29.55 289.89 90.41 289.89 104.15 294.08 103.59 303.63"/><polygon class="cls-8" points="89.3 299.94 29.55 299.94 29.55 289.89 90.41 289.89 89.3 299.94"/><polygon class="cls-3" points="26.41 351.43 32.91 354.76 81.95 354.76 96.09 349.49 94.75 360.47 81.8 365.42 33.24 363.5 26.41 359.31 26.41 351.43"/><polygon class="cls-7" points="32.91 354.76 81.95 354.76 81.8 365.42 33.24 363.5 32.91 354.76"/><path class="cls-9" d="M73.68,310.77H71c-3.14-4.19-7.44-6.77-12.19-6.77s-9.05,2.58-12.19,6.77H43.31a3.5,3.5,0,0,0-3.5,3.5v26.66a3.49,3.49,0,0,0,3.5,3.5h3.14c3.16,4.32,7.53,7,12.36,7s9.2-2.68,12.36-7h2.51a3.5,3.5,0,0,0,3.5-3.5V314.27A3.5,3.5,0,0,0,73.68,310.77Z"/><path class="cls-6" d="M71.25,313.49H69c-2.64-3.52-6.25-5.69-10.24-5.69s-7.6,2.17-10.24,5.69H45.74a2.94,2.94,0,0,0-2.94,2.93v22.4a2.94,2.94,0,0,0,2.94,2.94h2.64c2.65,3.63,6.32,5.87,10.38,5.87s7.73-2.24,10.38-5.87h2.11a2.94,2.94,0,0,0,2.94-2.94v-22.4A2.94,2.94,0,0,0,71.25,313.49Z"/><path class="cls-10" d="M74.19,338.82V318.07h-.55c-2.64-3.51-6.25-5.69-10.24-5.69s-7.6,2.18-10.24,5.69H50.38A2.94,2.94,0,0,0,47.44,321v20.75h.94c2.65,3.63,6.32,5.87,10.38,5.87s7.73-2.24,10.38-5.87h2.11A2.94,2.94,0,0,0,74.19,338.82Z"/><path class="cls-9" d="M96.61,311.27l-.58,0c-.3-3.78-1-6.08-2-6s-2.18,2.53-3.24,6.43l-.71.06c-.42,0-.9,1.49-1.07,3.27L86.6,339.52c-.17,1.78,0,3.19.44,3.15l.68-.05c.29,3.91,1,6.28,2,6.2s2.22-2.61,3.29-6.63l.54-.05c.42,0,.9-1.49,1.07-3.27l2.39-24.45C97.22,312.64,97,311.23,96.61,311.27Z"/><path class="cls-6" d="M95.84,313.8l-.48,0c-.26-3.18-.84-5.11-1.7-5s-1.84,2.12-2.72,5.39l-.6.05c-.35,0-.75,1.26-.9,2.75l-2,20.54c-.15,1.49,0,2.67.37,2.64l.57,0c.24,3.28.83,5.28,1.71,5.21s1.87-2.2,2.76-5.57l.46,0c.35,0,.75-1.26.89-2.75l2-20.54C96.36,315,96.19,313.77,95.84,313.8Z"/><path class="cls-9" d="M26.77,313.46l.19-.14c-.09-3.78,0-6.23.35-6.47s.81,1.77,1.32,5.24l.23-.17c.13-.1.35,1.17.49,2.85l1.9,23.05a11.2,11.2,0,0,1,0,3.2l-.22.16c.09,3.89,0,6.43-.35,6.67s-.82-1.84-1.35-5.42l-.17.13c-.13.1-.35-1.18-.49-2.85l-1.9-23A11.18,11.18,0,0,1,26.77,313.46Z"/><path class="cls-6" d="M27.13,315.68l.16-.12c-.07-3.17,0-5.23.29-5.43s.68,1.49,1.11,4.4l.2-.14a6.43,6.43,0,0,1,.41,2.39l1.59,19.36a9.32,9.32,0,0,1,0,2.69l-.18.13c.08,3.27,0,5.4-.29,5.61s-.7-1.55-1.14-4.56l-.14.11a6.31,6.31,0,0,1-.41-2.39l-1.6-19.36A9.3,9.3,0,0,1,27.13,315.68Z"/><path class="cls-3" d="M66.31,254.81A4.84,4.84,0,1,1,61.47,250,4.84,4.84,0,0,1,66.31,254.81Z"/><circle class="cls-5" cx="61.47" cy="253.06" r="2.34"/></svg>