<svg id="Layer_1" data-name="Layer 1" xmlns="http://www.w3.org/2000/svg" viewBox="0 0 126.44 425.78"><defs><style>.cls-1{fill:#7348b4;}.cls-2{fill:#bcacef;}.cls-3{fill:#d4cbf7;}.cls-4{fill:#f6f2ee;}.cls-5{fill:#523191;}.cls-6{fill:#9775ea;}.cls-7{fill:#ac9cf2;}</style></defs><path class="cls-1" d="M62.18,170.46a10.6,10.6,0,1,1,10.59-10.6A10.61,10.61,0,0,1,62.18,170.46Zm0-19.19a8.6,8.6,0,1,0,8.59,8.59A8.6,8.6,0,0,0,62.18,151.27Z"/><polygon class="cls-1" points="29.07 207.08 97.37 207.08 97.37 332.21 30.29 330.09 29.07 207.08"/><path class="cls-2" d="M75.86,230.86a15.41,15.41,0,0,1-12.92-11.54A15.41,15.41,0,0,1,50,230.86c0,9.35-4.77,18.36-10.73,20.78V283.3c6,2.42,10.73,11.43,10.73,20.78a15.41,15.41,0,0,1,12.93,11.54,15.41,15.41,0,0,1,12.92-11.54c0-9.35,4.77-18.36,10.74-20.78V251.64C80.63,249.22,75.86,240.21,75.86,230.86Z"/><path class="cls-3" d="M73.42,237.78a12.48,12.48,0,0,1-10.48-9.36,12.48,12.48,0,0,1-10.48,9.36c0,7.58-3.87,14.89-8.71,16.85v25.68c4.84,2,8.71,9.27,8.71,16.85a12.49,12.49,0,0,1,10.48,9.36,12.49,12.49,0,0,1,10.48-9.36c0-7.58,3.87-14.89,8.7-16.85V254.63C77.29,252.67,73.42,245.36,73.42,237.78Z"/><path class="cls-4" d="M73.42,246.07a12.48,12.48,0,0,1-10.48-9.35,12.48,12.48,0,0,1-10.48,9.35c0,7.58-3.87,14.89-8.71,16.85v17.39c4.84,2,8.71,9.27,8.71,16.85a12.49,12.49,0,0,1,10.48,9.36,12.49,12.49,0,0,1,10.48-9.36c0-7.58,3.87-14.89,8.7-16.85V262.92C77.29,261,73.42,253.65,73.42,246.07Z"/><path class="cls-5" d="M93.47,327l-60.23-1.37-.35-115.89H94.42Zm-57.24-4.14,54.26,1.23.91-111.52H35.9Z"/><polygon class="cls-5" points="92.76 217.78 73.78 217.78 73.78 211.17 76.78 211.17 76.78 214.95 92.76 214.95 92.76 217.78"/><polygon class="cls-5" points="92.37 231.26 85.61 231.26 86.28 211.12 89.28 211.21 88.7 228.42 92.37 228.42 92.37 231.26"/><path class="cls-5" d="M84.91,229.84H74.28V218.61H84.91ZM77.28,227h4.63v-5.56H77.28Z"/><polygon class="cls-5" points="75.78 226.1 69.16 226.1 69.16 217.78 63.91 217.78 63.91 211.17 66.91 211.17 66.91 214.95 72.16 214.95 72.16 223.26 75.78 223.26 75.78 226.1"/><polygon class="cls-5" points="91.59 247.81 84.22 247.81 84.22 232.15 91.97 232.15 91.97 234.99 87.22 234.99 87.22 244.97 91.59 244.97 91.59 247.81"/><polygon class="cls-5" points="91.11 240.21 78.74 240.21 78.74 228.42 81.74 228.42 81.74 237.37 91.11 237.37 91.11 240.21"/><polygon class="cls-5" points="52.59 217.78 33.61 217.78 33.61 214.95 49.59 214.95 49.59 211.17 52.59 211.17 52.59 217.78"/><polygon class="cls-5" points="40.76 231.26 34 231.26 34 228.42 37.66 228.42 37.09 211.21 40.09 211.12 40.76 231.26"/><path class="cls-5" d="M52.09,229.84H41.46V218.61H52.09ZM44.46,227h4.63v-5.56H44.46Z"/><polygon class="cls-5" points="57.21 226.1 50.59 226.1 50.59 223.26 54.21 223.26 54.21 214.95 59.46 214.95 59.46 211.17 62.46 211.17 62.46 217.78 57.21 217.78 57.21 226.1"/><polygon class="cls-5" points="42.15 247.81 34.77 247.81 34.77 244.97 39.15 244.97 39.15 234.99 34.4 234.99 34.4 232.15 42.15 232.15 42.15 247.81"/><polygon class="cls-5" points="47.63 240.21 35.25 240.21 35.25 237.37 44.63 237.37 44.63 228.42 47.63 228.42 47.63 240.21"/><polygon class="cls-5" points="76.78 324.78 73.78 324.78 73.78 318.16 92.76 318.16 92.76 321 76.78 321 76.78 324.78"/><polygon class="cls-5" points="86.28 324.83 85.61 304.69 92.37 304.69 92.37 307.52 88.7 307.52 89.28 324.74 86.28 324.83"/><path class="cls-5" d="M84.91,317.34H74.28V306.11H84.91Zm-7.63-2.84h4.63v-5.56H77.28Z"/><polygon class="cls-5" points="66.91 324.78 63.91 324.78 63.91 318.16 69.16 318.16 69.16 309.85 75.78 309.85 75.78 312.69 72.16 312.69 72.16 321 66.91 321 66.91 324.78"/><polygon class="cls-5" points="91.97 303.8 84.22 303.8 84.22 288.14 91.59 288.14 91.59 290.98 87.22 290.98 87.22 300.96 91.97 300.96 91.97 303.8"/><polygon class="cls-5" points="81.74 307.52 78.74 307.52 78.74 295.74 91.11 295.74 91.11 298.58 81.74 298.58 81.74 307.52"/><polygon class="cls-5" points="52.59 324.78 49.59 324.78 49.59 321 33.61 321 33.61 318.16 52.59 318.16 52.59 324.78"/><polygon class="cls-5" points="40.09 324.83 37.09 324.74 37.66 307.52 34 307.52 34 304.69 40.76 304.69 40.09 324.83"/><path class="cls-5" d="M52.09,317.34H41.46V306.11H52.09Zm-7.63-2.84h4.63v-5.56H44.46Z"/><polygon class="cls-5" points="62.46 324.78 59.46 324.78 59.46 321 54.21 321 54.21 312.69 50.59 312.69 50.59 309.85 57.21 309.85 57.21 318.16 62.46 318.16 62.46 324.78"/><polygon class="cls-5" points="42.15 303.8 34.4 303.8 34.4 300.96 39.15 300.96 39.15 290.98 34.77 290.98 34.77 288.14 42.15 288.14 42.15 303.8"/><polygon class="cls-5" points="47.63 307.52 44.63 307.52 44.63 298.58 35.25 298.58 35.25 295.74 47.63 295.74 47.63 307.52"/><polygon class="cls-6" points="29.07 207.08 53.58 187.64 71.34 187.64 97.37 207.08 29.07 207.08"/><polygon class="cls-6" points="30.29 330.09 58.63 343.6 68.58 343.6 97.37 332.21 30.29 330.09"/><path class="cls-7" d="M53.21,187.64H71.38a11.31,11.31,0,0,0,4-8.51c0-6.55-5.85-11.86-13.07-11.86s-13.06,5.31-13.06,11.86A11.31,11.31,0,0,0,53.21,187.64Z"/><path class="cls-2" d="M62.29,167.27a14,14,0,0,0-6.94,1.83,8.53,8.53,0,0,1,2.21-.29c5.54,0,10,5.12,10,11.44a12.38,12.38,0,0,1-2.38,7.39h6.17a11.31,11.31,0,0,0,4-8.51C75.36,172.58,69.51,167.27,62.29,167.27Z"/><path class="cls-7" d="M58.63,343.6h9.95a6.2,6.2,0,0,1,2.18,4.66c0,3.58-3.21,6.49-7.15,6.49s-7.15-2.91-7.15-6.49A6.19,6.19,0,0,1,58.63,343.6Z"/><path class="cls-2" d="M63.61,354.75a7.63,7.63,0,0,1-3.8-1,4.84,4.84,0,0,0,1.21.16c3,0,5.48-2.81,5.48-6.27a6.77,6.77,0,0,0-1.3-4h3.38a6.2,6.2,0,0,1,2.18,4.66C70.76,351.84,67.55,354.75,63.61,354.75Z"/><rect class="cls-1" x="61.18" width="2" height="150.27"/><path class="cls-1" d="M56.52,342.59A30,30,0,0,0,49.17,362c4.87-.13,9.25-8.25,9.25-8.25s1.37,8.25,7.75,10.62a23.07,23.07,0,0,0,5.12-10.89s-1.12,5.27,6.63,9c1.5-9.25-7.16-19.91-7.16-19.91Z"/><polygon class="cls-2" points="31.22 207.08 48.47 207.08 44.34 198.48 31.22 207.08"/><polygon class="cls-2" points="48.47 207.08 62.94 207.08 57.47 197.36 48.47 207.08"/><polygon class="cls-2" points="79.59 197.86 75.78 207.08 91.97 207.08 79.59 197.86"/><polygon class="cls-2" points="62.94 207.08 75.78 207.08 68.84 197.36 62.94 207.08"/><polygon class="cls-2" points="35.16 330.24 49.78 337.61 51.53 331.67 59.81 340.3 64.72 331.73 69.84 340.17 76.78 332.21 79.07 337.84 91.97 332.04 35.16 330.24"/></svg>