<svg id="Layer_1" data-name="Layer 1" xmlns="http://www.w3.org/2000/svg" viewBox="0 0 126.44 425.78"><defs><style>.cls-1{fill:#25adb7;}.cls-2{fill:#6ddae2;}.cls-3{fill:#41becd;}.cls-4{fill:#159da0;}.cls-5{fill:#27adb7;}.cls-6{fill:#d6f2ec;}.cls-7{fill:#f6f2ee;}.cls-8{fill:#f0fffb;}.cls-9{fill:#8be6e8;}</style></defs><path class="cls-1" d="M69,410.18c0,2.23-2.5,4-5.59,4s-5.59-1.8-5.59-4,2.5-4,5.59-4S69,408,69,410.18Z"/><path class="cls-2" d="M72.17,402.49c0,3.5-3.93,6.33-8.78,6.33s-8.78-2.83-8.78-6.33,3.93-6.32,8.78-6.32S72.17,399,72.17,402.49Z"/><path class="cls-1" d="M25.44,376s3.25,25.19,38,26.47,38.5-28.3,38.5-28.3Z"/><path class="cls-3" d="M42.69,376s1.77,25.19,20.62,26.47,20.88-28.3,20.88-28.3Z"/><path class="cls-3" d="M32.44,267.23s-5-15,9-20.75S60.17,225.73,59.93,222c2.76,14,19.76,23.5,27,27.75s3.25,17.5,3.25,17.5Z"/><path class="cls-2" d="M50.61,267.15a16,16,0,0,1-4.42-11.92C46.69,248,60.5,235,59.93,222c2.43,15.17,7.6,19.84,12.43,26.09a14.89,14.89,0,0,1,0,18.58C63.94,268.15,50.61,267.15,50.61,267.15Z"/><polygon class="cls-3" points="27.5 270.24 21.69 368.49 47.44 370.99 82.44 370.99 105.19 368.74 94 270.24 27.5 270.24"/><polygon class="cls-2" points="48.54 269.53 47.44 370.99 83.2 370.91 74.65 269.88 48.54 269.53"/><polygon class="cls-4" points="25.5 265.07 95.36 265.15 95.36 272.49 25.17 272.9 25.5 265.07"/><polygon class="cls-5" points="73.69 265.15 49.44 265.15 49.44 272.82 73.69 272.64 73.69 265.15"/><polygon class="cls-4" points="18.19 365.32 47.5 368.98 83.2 368.98 108.19 365.32 110.36 377.49 83.2 382.99 47.44 382.99 15.53 378.15 18.19 365.32"/><polygon class="cls-5" points="47.5 368.98 83.2 368.98 83.2 382.99 47.44 382.99 47.5 368.98"/><path class="cls-6" d="M74.44,348.9c-.89-12.67-2.33-30.91-3.75-39-.21-1.24-.42-3.87-1.91-5.35-3.68-3.65-10.66-4.88-12.09,5.48-1,13.46-1.64,28.42-2,38.88Z"/><path class="cls-7" d="M57.62,321.68c-.71,9.09-1.18,18.95-1.5,27.22H72.76C72,338.8,71,327.31,70,321.57c-.19-1.1-.38-3.42-1.69-4.73C65,313.62,58.87,312.53,57.62,321.68Z"/><path class="cls-6" d="M41.58,310.41c-.65-9.8-6.29-8.63-9.4-5.18-1.26,1.4-1.54,3.89-1.78,5.07C29,317.69,28.3,334,27.26,345.93l15.62,2C42.91,338,41.79,323.47,41.58,310.41Z"/><path class="cls-7" d="M42.88,348c0-7.84-.67-18.57-1.06-29.16-2.39-2.74-7-3.74-8.22,3.84-.89,8-1.63,16.68-2.18,23.83Z"/><path class="cls-6" d="M94.88,310.3c-.29-1.18-.72-3.67-2.06-5.07-3.3-3.45-9-4.62-9.1,5.18.53,13.33-.29,28.22.31,38.15l15.43-3C97.86,333.72,96.74,317.62,94.88,310.3Z"/><path class="cls-7" d="M92.16,322.64c-1.28-7.63-5.89-6.57-8.26-3.79.07,10.85-.34,21.83.13,29.71l10.32-2C93.8,339.41,93.06,330.66,92.16,322.64Z"/><path class="cls-3" d="M62.94,222.58a2.91,2.91,0,1,1-2.9-2.9A2.9,2.9,0,0,1,62.94,222.58Z"/><path class="cls-2" d="M61.63,218.4a1.6,1.6,0,0,1-3.19,0,1.6,1.6,0,1,1,3.19,0Z"/><path class="cls-3" d="M61.19,215.93a1.16,1.16,0,0,1-2.31,0,1.16,1.16,0,1,1,2.31,0Z"/><path class="cls-2" d="M61.63,213.4a1.6,1.6,0,0,1-3.19,0,1.6,1.6,0,1,1,3.19,0Z"/><path class="cls-3" d="M61.19,210.93a1.16,1.16,0,0,1-2.31,0,1.16,1.16,0,1,1,2.31,0Z"/><path class="cls-2" d="M61.63,208.4a1.6,1.6,0,0,1-3.19,0,1.6,1.6,0,1,1,3.19,0Z"/><path class="cls-3" d="M61.19,205.93a1.16,1.16,0,0,1-2.31,0,1.16,1.16,0,1,1,2.31,0Z"/><path class="cls-2" d="M61.63,203.4a1.6,1.6,0,0,1-3.19,0,1.6,1.6,0,1,1,3.19,0Z"/><path class="cls-3" d="M61.19,200.93a1.16,1.16,0,0,1-2.31,0,1.16,1.16,0,1,1,2.31,0Z"/><path class="cls-2" d="M61.63,198.4a1.6,1.6,0,0,1-3.19,0,1.6,1.6,0,1,1,3.19,0Z"/><path class="cls-3" d="M61.19,195.93a1.16,1.16,0,0,1-2.31,0,1.16,1.16,0,1,1,2.31,0Z"/><path class="cls-2" d="M61.63,193.4a1.6,1.6,0,0,1-3.19,0,1.6,1.6,0,1,1,3.19,0Z"/><path class="cls-3" d="M61.19,190.93a1.16,1.16,0,0,1-2.31,0,1.16,1.16,0,1,1,2.31,0Z"/><path class="cls-2" d="M61.63,188.4a1.6,1.6,0,0,1-3.19,0,1.6,1.6,0,1,1,3.19,0Z"/><path class="cls-3" d="M61.19,185.93a1.16,1.16,0,0,1-2.31,0,1.16,1.16,0,1,1,2.31,0Z"/><path class="cls-2" d="M61.63,183.4a1.6,1.6,0,0,1-3.19,0,1.6,1.6,0,1,1,3.19,0Z"/><path class="cls-3" d="M61.19,180.93a1.16,1.16,0,0,1-2.31,0,1.16,1.16,0,1,1,2.31,0Z"/><path class="cls-2" d="M61.63,178.4a1.6,1.6,0,0,1-3.19,0,1.6,1.6,0,1,1,3.19,0Z"/><path class="cls-3" d="M61.19,175.93a1.16,1.16,0,0,1-2.31,0,1.16,1.16,0,1,1,2.31,0Z"/><path class="cls-2" d="M61.63,173.4a1.6,1.6,0,0,1-3.19,0,1.6,1.6,0,1,1,3.19,0Z"/><path class="cls-3" d="M61.19,170.93a1.16,1.16,0,0,1-2.31,0,1.16,1.16,0,1,1,2.31,0Z"/><path class="cls-2" d="M61.63,168.4a1.6,1.6,0,0,1-3.19,0,1.6,1.6,0,1,1,3.19,0Z"/><path class="cls-3" d="M61.19,165.93a1.16,1.16,0,0,1-2.31,0,1.16,1.16,0,1,1,2.31,0Z"/><path class="cls-2" d="M61.63,163.4a1.6,1.6,0,0,1-3.19,0,1.6,1.6,0,1,1,3.19,0Z"/><path class="cls-3" d="M61.19,160.93a1.16,1.16,0,0,1-2.31,0,1.16,1.16,0,1,1,2.31,0Z"/><path class="cls-2" d="M61.63,158.4a1.6,1.6,0,0,1-3.19,0,1.6,1.6,0,1,1,3.19,0Z"/><path class="cls-3" d="M61.19,155.93a1.16,1.16,0,0,1-2.31,0,1.16,1.16,0,1,1,2.31,0Z"/><path class="cls-2" d="M61.63,153.4a1.6,1.6,0,0,1-3.19,0,1.6,1.6,0,1,1,3.19,0Z"/><path class="cls-3" d="M61.19,150.93a1.16,1.16,0,0,1-2.31,0,1.16,1.16,0,1,1,2.31,0Z"/><path class="cls-2" d="M61.63,148.4a1.6,1.6,0,0,1-3.19,0,1.6,1.6,0,1,1,3.19,0Z"/><path class="cls-3" d="M61.19,145.93a1.16,1.16,0,0,1-2.31,0,1.16,1.16,0,1,1,2.31,0Z"/><path class="cls-2" d="M61.63,143.4a1.6,1.6,0,0,1-3.19,0,1.6,1.6,0,1,1,3.19,0Z"/><path class="cls-3" d="M61.19,140.93a1.16,1.16,0,0,1-2.31,0,1.16,1.16,0,1,1,2.31,0Z"/><path class="cls-2" d="M61.63,138.4a1.6,1.6,0,0,1-3.19,0,1.6,1.6,0,1,1,3.19,0Z"/><path class="cls-3" d="M61.19,135.93a1.16,1.16,0,0,1-2.31,0,1.16,1.16,0,1,1,2.31,0Z"/><path class="cls-2" d="M61.63,133.4a1.6,1.6,0,0,1-3.19,0,1.6,1.6,0,1,1,3.19,0Z"/><path class="cls-3" d="M61.19,130.93a1.16,1.16,0,0,1-2.31,0,1.16,1.16,0,1,1,2.31,0Z"/><path class="cls-2" d="M61.63,128.4a1.6,1.6,0,0,1-3.19,0,1.6,1.6,0,1,1,3.19,0Z"/><path class="cls-3" d="M61.19,125.93a1.16,1.16,0,0,1-2.31,0,1.16,1.16,0,1,1,2.31,0Z"/><path class="cls-2" d="M61.63,123.4a1.6,1.6,0,0,1-3.19,0,1.6,1.6,0,1,1,3.19,0Z"/><path class="cls-3" d="M61.19,120.93a1.16,1.16,0,0,1-2.31,0,1.16,1.16,0,1,1,2.31,0Z"/><path class="cls-2" d="M61.63,118.4a1.6,1.6,0,0,1-3.19,0,1.6,1.6,0,1,1,3.19,0Z"/><path class="cls-3" d="M61.19,115.93a1.16,1.16,0,0,1-2.31,0,1.16,1.16,0,1,1,2.31,0Z"/><path class="cls-2" d="M61.63,113.4a1.6,1.6,0,0,1-3.19,0,1.6,1.6,0,1,1,3.19,0Z"/><path class="cls-3" d="M61.19,110.93a1.16,1.16,0,0,1-2.31,0,1.16,1.16,0,1,1,2.31,0Z"/><path class="cls-2" d="M61.63,108.4a1.6,1.6,0,0,1-3.19,0,1.6,1.6,0,1,1,3.19,0Z"/><path class="cls-3" d="M61.19,105.93a1.16,1.16,0,0,1-2.31,0,1.16,1.16,0,1,1,2.31,0Z"/><path class="cls-2" d="M61.63,103.4a1.6,1.6,0,0,1-3.19,0,1.6,1.6,0,1,1,3.19,0Z"/><path class="cls-3" d="M61.19,100.93a1.16,1.16,0,0,1-2.31,0,1.16,1.16,0,1,1,2.31,0Z"/><path class="cls-2" d="M61.63,98.55A1.6,1.6,0,1,1,60,97,1.6,1.6,0,0,1,61.63,98.55Z"/><path class="cls-3" d="M61.19,96.08A1.16,1.16,0,1,1,60,94.93,1.15,1.15,0,0,1,61.19,96.08Z"/><path class="cls-2" d="M61.63,93.55A1.6,1.6,0,1,1,60,92,1.6,1.6,0,0,1,61.63,93.55Z"/><path class="cls-3" d="M61.19,91.08A1.16,1.16,0,1,1,60,89.93,1.15,1.15,0,0,1,61.19,91.08Z"/><path class="cls-2" d="M61.63,88.55A1.6,1.6,0,1,1,60,87,1.6,1.6,0,0,1,61.63,88.55Z"/><path class="cls-3" d="M61.19,86.08A1.16,1.16,0,1,1,60,84.93,1.15,1.15,0,0,1,61.19,86.08Z"/><path class="cls-2" d="M61.63,83.55A1.6,1.6,0,1,1,60,82,1.6,1.6,0,0,1,61.63,83.55Z"/><path class="cls-3" d="M61.19,81.08A1.16,1.16,0,1,1,60,79.93,1.15,1.15,0,0,1,61.19,81.08Z"/><path class="cls-2" d="M61.63,78.55A1.6,1.6,0,1,1,60,77,1.6,1.6,0,0,1,61.63,78.55Z"/><path class="cls-3" d="M61.19,76.08A1.16,1.16,0,1,1,60,74.93,1.15,1.15,0,0,1,61.19,76.08Z"/><path class="cls-2" d="M61.63,73.55A1.6,1.6,0,1,1,60,72,1.6,1.6,0,0,1,61.63,73.55Z"/><path class="cls-3" d="M61.19,71.08A1.16,1.16,0,1,1,60,69.93,1.15,1.15,0,0,1,61.19,71.08Z"/><path class="cls-2" d="M61.63,68.55A1.6,1.6,0,1,1,60,67,1.6,1.6,0,0,1,61.63,68.55Z"/><path class="cls-3" d="M61.19,66.08A1.16,1.16,0,1,1,60,64.93,1.15,1.15,0,0,1,61.19,66.08Z"/><path class="cls-2" d="M61.63,63.55A1.6,1.6,0,1,1,60,62,1.6,1.6,0,0,1,61.63,63.55Z"/><path class="cls-3" d="M61.19,61.08A1.16,1.16,0,1,1,60,59.93,1.15,1.15,0,0,1,61.19,61.08Z"/><path class="cls-2" d="M61.63,58.55A1.6,1.6,0,1,1,60,57,1.6,1.6,0,0,1,61.63,58.55Z"/><path class="cls-3" d="M61.19,56.08A1.16,1.16,0,1,1,60,54.93,1.15,1.15,0,0,1,61.19,56.08Z"/><path class="cls-2" d="M61.63,53.55A1.6,1.6,0,1,1,60,52,1.6,1.6,0,0,1,61.63,53.55Z"/><path class="cls-3" d="M61.19,51.08A1.16,1.16,0,1,1,60,49.93,1.15,1.15,0,0,1,61.19,51.08Z"/><path class="cls-2" d="M61.63,48.62A1.6,1.6,0,1,1,60,47,1.59,1.59,0,0,1,61.63,48.62Z"/><path class="cls-3" d="M61.19,46.16A1.16,1.16,0,1,1,60,45,1.15,1.15,0,0,1,61.19,46.16Z"/><path class="cls-2" d="M61.63,43.62A1.6,1.6,0,1,1,60,42,1.59,1.59,0,0,1,61.63,43.62Z"/><path class="cls-3" d="M61.19,41.16A1.16,1.16,0,1,1,60,40,1.15,1.15,0,0,1,61.19,41.16Z"/><path class="cls-2" d="M61.63,38.62A1.6,1.6,0,1,1,60,37,1.59,1.59,0,0,1,61.63,38.62Z"/><path class="cls-3" d="M61.19,36.16A1.16,1.16,0,1,1,60,35,1.15,1.15,0,0,1,61.19,36.16Z"/><path class="cls-2" d="M61.63,33.62A1.6,1.6,0,1,1,60,32,1.59,1.59,0,0,1,61.63,33.62Z"/><path class="cls-3" d="M61.19,31.16A1.16,1.16,0,1,1,60,30,1.15,1.15,0,0,1,61.19,31.16Z"/><path class="cls-2" d="M61.63,28.62A1.6,1.6,0,1,1,60,27,1.59,1.59,0,0,1,61.63,28.62Z"/><path class="cls-3" d="M61.19,26.16A1.16,1.16,0,1,1,60,25,1.15,1.15,0,0,1,61.19,26.16Z"/><path class="cls-2" d="M61.63,23.62A1.6,1.6,0,1,1,60,22,1.59,1.59,0,0,1,61.63,23.62Z"/><path class="cls-3" d="M61.19,21.16A1.16,1.16,0,1,1,60,20,1.15,1.15,0,0,1,61.19,21.16Z"/><path class="cls-2" d="M61.63,18.62A1.6,1.6,0,1,1,60,17,1.59,1.59,0,0,1,61.63,18.62Z"/><path class="cls-3" d="M61.19,16.16A1.16,1.16,0,1,1,60,15,1.15,1.15,0,0,1,61.19,16.16Z"/><path class="cls-2" d="M61.63,13.62A1.6,1.6,0,1,1,60,12,1.59,1.59,0,0,1,61.63,13.62Z"/><path class="cls-3" d="M61.19,11.16A1.16,1.16,0,1,1,60,10,1.15,1.15,0,0,1,61.19,11.16Z"/><path class="cls-2" d="M61.63,8.62A1.6,1.6,0,1,1,60,7,1.59,1.59,0,0,1,61.63,8.62Z"/><path class="cls-3" d="M61.19,6.16A1.16,1.16,0,1,1,60,5,1.15,1.15,0,0,1,61.19,6.16Z"/><path class="cls-2" d="M61.63,3.62A1.6,1.6,0,1,1,60,2,1.59,1.59,0,0,1,61.63,3.62Z"/><path class="cls-3" d="M61.19,1.16A1.16,1.16,0,1,1,60,0,1.15,1.15,0,0,1,61.19,1.16Z"/><path class="cls-8" d="M62.54,298.47a7.81,7.81,0,0,0-3.81-6.75c-4-2.19-7.76.87-7.1,5.31s5,3.06,4.57,1-2-2-2.46-1c0-2.56.6-3.44,2.4-4.06s6,2.56,6.14,7.31C62.52,298.84,62.54,298.47,62.54,298.47Z"/><path class="cls-8" d="M62,298.47a7.83,7.83,0,0,1,3.82-6.75c4-2.19,7.76.87,7.1,5.31s-5,3.06-4.58,1,2-2,2.47-1c0-2.56-.6-3.44-2.41-4.06s-6,2.56-6.13,7.31C62.05,298.84,62,298.47,62,298.47Z"/><path class="cls-8" d="M62.54,277.08a7.81,7.81,0,0,1-3.81,6.75c-4,2.19-7.76-.87-7.1-5.31s5-3.06,4.57-1-2,2-2.46,1c0,2.56.6,3.44,2.4,4.06s6-2.56,6.14-7.31C62.52,276.71,62.54,277.08,62.54,277.08Z"/><path class="cls-8" d="M62,277.08a7.83,7.83,0,0,0,3.82,6.75c4,2.19,7.76-.87,7.1-5.31s-5-3.06-4.58-1,2,2,2.47,1c0,2.56-.6,3.44-2.41,4.06s-6-2.56-6.13-7.31C62.05,276.71,62,277.08,62,277.08Z"/><path class="cls-8" d="M66.17,283.24c-2-.66-3.62,1.32-3.62,1.32a3.74,3.74,0,0,0-4.8-.78c-3,1.56-3.67,8,.29,8.16s4.51-2.29,4.51-2.29c.12,4.09,7.12,2.67,7.24-.12S68.21,283.9,66.17,283.24Zm-3.62,4.41s-.38,3-3.07,2.93-2.22-4.5-.2-5.57a2.56,2.56,0,0,1,3.27.53,2.47,2.47,0,0,1,2.46-.89c1.39.45,2.56,2.38,2.47,4.28S62.55,291.7,62.55,287.65Z"/><path class="cls-6" d="M35.94,298.47s.55-4.57-1.82-6.75S29,292.59,29,297s2.95,3.06,2.88,1-1.14-2-1.51-1c.25-2.56.73-3.44,2-4.06s3.65,2.56,3.27,7.31C35.88,298.84,35.94,298.47,35.94,298.47Z"/><path class="cls-6" d="M35.6,298.47s.35-4.57,3.14-6.75,5,.87,4.1,5.31-3.55,3.06-3.08,1,1.53-2,1.71-1c.25-2.56-.06-3.44-1.17-4.06s-4.16,2.56-4.71,7.31C35.58,298.84,35.6,298.47,35.6,298.47Z"/><path class="cls-6" d="M38,277.08s-.35,4.57-3.15,6.75-5-.87-4.09-5.31,3.55-3.06,3.07-1-1.52,2-1.7,1c-.25,2.56,0,3.44,1.17,4.06S37.5,280,38,275.27C38.06,276.71,38,277.08,38,277.08Z"/><path class="cls-6" d="M37.7,277.08s-.55,4.57,1.82,6.75,5.13-.87,5.13-5.31-2.94-3.06-2.87-1,1.13,2,1.51,1c-.26,2.56-.73,3.44-2,4.06s-3.66-2.56-3.27-7.31C37.75,276.71,37.7,277.08,37.7,277.08Z"/><path class="cls-6" d="M39.79,283.24c-1.26-.66-2.49,1.32-2.49,1.32a1.85,1.85,0,0,0-3-.78c-2.08,1.56-3.17,8-.61,8.16a3,3,0,0,0,3.15-2.29c-.31,4.09,4.37,2.67,4.73-.12S41.05,283.9,39.79,283.24ZM37,287.65s-.54,3-2.28,2.93-1-4.5.42-5.57a1.27,1.27,0,0,1,2.07.53s.83-1.34,1.69-.89,1.43,2.38,1.19,4.28S36.6,291.7,37,287.65Z"/><path class="cls-6" d="M87.09,298.47s-.55-4.57,1.81-6.75S94,292.59,94,297s-2.94,3.06-2.87,1,1.13-2,1.5-1c-.25-2.56-.73-3.44-2-4.06s-3.66,2.56-3.27,7.31C87.14,298.84,87.09,298.47,87.09,298.47Z"/><path class="cls-6" d="M87.43,298.47s-.35-4.57-3.15-6.75-5,.87-4.09,5.31,3.55,3.06,3.07,1-1.53-2-1.7-1c-.25-2.56,0-3.44,1.16-4.06s4.17,2.56,4.71,7.31C87.45,298.84,87.43,298.47,87.43,298.47Z"/><path class="cls-6" d="M85,277.08s.34,4.57,3.14,6.75,5-.87,4.09-5.31-3.54-3.06-3.07-1,1.53,2,1.7,1c.26,2.56,0,3.44-1.16,4.06S85.53,280,85,275.27C85,276.71,85,277.08,85,277.08Z"/><path class="cls-6" d="M85.32,277.08s.55,4.57-1.81,6.75-5.13-.87-5.14-5.31,2.94-3.06,2.87-1-1.13,2-1.5,1c.25,2.56.73,3.44,2,4.06S85.36,280,85,275.27C85.27,276.71,85.32,277.08,85.32,277.08Z"/><path class="cls-6" d="M81.49,289.53c.36,2.79,5.05,4.21,4.73.12a3,3,0,0,0,3.15,2.29c2.56-.16,1.47-6.6-.61-8.16a1.85,1.85,0,0,0-3,.78s-1.22-2-2.49-1.32S81.14,286.74,81.49,289.53Zm1.45-.6c-.24-1.9.32-3.83,1.18-4.28s1.7.89,1.7.89a1.26,1.26,0,0,1,2.07-.53c1.42,1.07,2.16,5.45.41,5.57S86,287.65,86,287.65C86.42,291.7,83.18,290.83,82.94,288.93Z"/><path class="cls-3" d="M15.53,359.88c-.24.52-2,23.1-2,23.1h5.63l1-23.1Z"/><ellipse class="cls-9" cx="17.63" cy="358.15" rx="3.63" ry="3.5"/><path class="cls-9" d="M20.38,383.65a4.13,4.13,0,1,1-4.13-4A4.06,4.06,0,0,1,20.38,383.65Z"/><path class="cls-3" d="M44.32,364.72c-.24.52-2,23.1-2,23.1H48l1-23.1Z"/><ellipse class="cls-9" cx="46.42" cy="362.99" rx="3.63" ry="3.5"/><path class="cls-9" d="M49.17,388.49a4.13,4.13,0,1,1-4.13-4A4.06,4.06,0,0,1,49.17,388.49Z"/><path class="cls-3" d="M84.36,364.72c.24.52,2,23.1,2,23.1H80.72l-1-23.1Z"/><ellipse class="cls-9" cx="82.27" cy="362.99" rx="3.63" ry="3.5"/><path class="cls-9" d="M79.52,388.49a4.13,4.13,0,1,0,4.12-4A4,4,0,0,0,79.52,388.49Z"/><path class="cls-3" d="M110.92,359.88c.23.52,2,23.1,2,23.1h-5.62l-1-23.1Z"/><ellipse class="cls-9" cx="108.82" cy="358.15" rx="3.62" ry="3.5"/><path class="cls-9" d="M106.07,383.65a4.13,4.13,0,1,0,4.12-4A4.05,4.05,0,0,0,106.07,383.65Z"/><path class="cls-4" d="M58.44,220.94s-5.11-4.83-4.81-7.75,3.3.38,3.5.55c2-3.56,4.91-2.3,5.29,0,1.83-2.71,4.08-2.27,3.54.1s-4.77,7.1-4.77,7.1Z"/></svg>